<?xml version="1.0" encoding="utf-8"?>
<!-- Generator: Adobe Illustrator 22.0.1, SVG Export Plug-In . SVG Version: 6.00 Build 0)  -->
<svg version="1.1" id="Capa_1" xmlns="http://www.w3.org/2000/svg" xmlns:xlink="http://www.w3.org/1999/xlink" x="0px" y="0px"
	 viewBox="0 0 400 300" style="enable-background:new 0 0 400 300;" xml:space="preserve">
<style type="text/css">
	.st0{fill:#F15A24;}
	.st1{fill:#1B1464;}
	.st2{fill:#29ABE2;}
	.st3{fill:#0071BC;}
</style>
<g>
	<g>
		<path class="st0" d="M84.1,120.6c-15.9-6.6-31-17.4-39.3-32.8c-3.5-6.5-11.1-26.8,3.5-25.3c9.5,0.9,13.7,11.8,20.5,17.1
			c0.9,0.7,2.1,0.1,1.9-1.1c-1.9-11.1,1.8-22.4,9.2-30.7c7.6-8.5,22.5-16.3,33.3-9.1c9.8,6.6,12.3,22.4,14,33.1
			c2.4,14.2,2.6,28.6,2.9,43c0,1.1,1.5,1.5,2.1,0.6c7.8-12.1,18.4-25,31.1-32.2c6.8-3.8,14.2-3.8,19.5,2.3c4.1,4.7,6,11.6,4.9,17.7
			c-2.5,13.9-16.6,23.6-28,30.2c-6.8,3.9-14.3,7.1-22.2,7.2c-7.5,0.1-13.6-3.5-20.5-5.6c-10-3-21,0.6-26.4,9.8
			c-1.7,2.9-3.2,6.7-0.7,9.6c1.3,1.5,3.6,2.2,5.4,3c3.9,1.5,7.9,2.8,12,3.7c23.1,5.4,51.5,4,72.8-7.3c8.9-4.8,16.7-11.8,20.8-21.2
			c5.1-11.6,4-24.6,3.5-37c-0.5-14,0.2-28.1,10-39.2c9.4-10.6,26.5-19.2,40.9-16.3c13.7,2.8,23,16.2,23.6,29.8
			c0.6,15.7-8.5,29.8-20.6,39c-4.8,3.6-10,6.5-15.5,8.9c-5.9,2.6-12.7,4.2-17.2,9.1c-3.8,4.1-5.5,10.1-7,15.4
			c-1.9,7-3,14.2-3.3,21.4c-0.4,10.3,0.3,23.2,9.2,30.1c7.9,6.1,22.3,7.4,31.7,4.7c12-3.5,17.2-15.9,21.5-26.5
			c5.2-13,8.6-26.5,13.8-39.4c5.4-13.2,13.4-28.5,27.7-33.5c14.7-5.2,29.3,3.3,30.4,19.2c1,15.3-10,28.6-19.4,39.4
			c-9.7,11.1-20.3,21.3-30.8,31.6c-10.9,10.6-22.1,21.2-34.7,29.7c-13.8,9.3-28.7,12.5-44.7,6.6c-13.8-5.1-24.9-15.4-35-25.9
			c-8.9-9.2-17.8-18.9-31.1-21.1c-12.9-2.1-26.9,1.6-39.3,4.8c-13.7,3.6-28.1,8.1-40.5,15c-9.1,5.1-12.9,13.6-6.9,23
			c6.3,9.8,17.6,17.6,27.5,23.5c46.5,27.9,103.1,24.3,154.5,17c16.5-2.3,33-5,49.5-7.1c14.1-1.8,28.7-1.8,42.6-4.8
			c10.4-2.2,21-7.9,25.3-18.1c3.5-8.4,0.7-18.9-7.5-23.5c-2.9-1.6-7.1-3-9.8-0.6c-3.1,2.7-3.8,7.1-3.1,10.9c0.4-0.5,0.7-0.9,1.1-1.4
			c-5.9-0.4-19.8-6.9-21.8,3.4c-1.7,8.8,8.8,11.4,15.3,12.1c1.4,0.2,1.4-2.1,0-2.2c-2.9-0.3-6-0.6-8.6-2c-5-2.6-6.2-10.4,0.8-11.4
			c4.8-0.7,9.6,2.1,14.4,2.4c0.8,0.1,1.2-0.8,1.1-1.4c-0.8-4.3,1-10.2,6.3-9.1c3.6,0.8,6.6,3.3,8.5,6.3c4,6.1,3.3,13.4-0.6,19.3
			c-8.5,12.8-25.1,14.2-39,15.3c-30.2,2.4-60,8.1-90,11.8c-51.8,6.4-111.2,5.9-153.2-29.8c-5-4.3-11-9.2-13.3-15.6
			c-3.1-8.7,3.8-14,10.7-17.3c13.5-6.6,28.2-11.3,42.8-14.8c14.5-3.5,31.3-7.3,45,0.9c11.5,6.9,19.6,18.6,29.6,27.4
			c9.4,8.2,20.2,15,32.5,17.5c12.7,2.5,24.4-0.6,35.2-7.3c12-7.5,22.6-17.1,32.8-26.8c10.6-10.2,21.3-20.4,31.3-31.2
			c13.6-14.8,35.1-39.3,20.4-60.3c-5.8-8.3-16.3-10.8-25.8-8.5c-10.9,2.6-19,11.3-24.7,20.6c-6.6,10.8-10.5,23.1-14.4,35.1
			c-2.2,6.6-4.3,13.3-6.9,19.7c-2.7,6.7-5.8,14.4-11,19.7c-5.5,5.5-13,6.8-20.6,6.2c-7.7-0.6-16.6-2.1-21.5-8.7
			c-8-11.1-5.5-29.6-2.6-41.9c1.5-6.5,3.3-14.5,8.5-19.1c5.1-4.6,12.5-6,18.6-9c10.8-5.2,20.9-12.9,27.3-23.2
			c11.4-18.4,9.1-46-12.8-55.4c-19.9-8.6-47.2,7-55.4,25.7c-10.5,23.9,5.4,53.4-12.5,75c-15.6,18.9-45.2,22.3-68,21
			c-7.7-0.4-15.4-1.6-22.7-3.8c-2.8-0.8-7.1-1.6-9.4-3.4c-6.1-4.7,2.1-12.5,5.7-14.8c13.2-8.5,25,3.7,38.6,3.6
			c12.1-0.2,23.5-6.9,33-13.8c8.5-6.2,17.3-14.4,19.3-25.2c1.5-8.1-1.6-17.5-8.3-22.5c-9-6.6-19-1.1-26.5,5
			c-9.8,7.9-18.1,17.4-24.8,27.9c0.7,0.2,1.4,0.4,2.1,0.6c-0.4-17-0.7-34.2-4.5-51c-2.5-11-6.6-26.4-19.2-29.6
			c-11.8-2.9-24.6,4.5-31.8,13.4c-7.1,8.8-10.4,20.2-8.4,31.4c0.6-0.4,1.3-0.7,1.9-1.1C62.7,72,58.1,60,47,60
			c-10.6,0-10.6,11.6-8.3,19.1c6.5,21,25.2,35.5,44.8,43.6C84.8,123.3,85.4,121.2,84.1,120.6L84.1,120.6z"/>
	</g>
</g>
<g>
	<g>
		<path class="st1" d="M162.4,96.7c0.2,11,0.3,22,0.5,33c0.1,10.1-0.6,20.6,0.8,30.6c0.9,6.4,4.4,13,11.5,13.6
			c5.7,0.5,11-2.7,11.3-8.7c-2,0.3-3.9,0.5-5.9,0.8c2.1,7.6,11.6,7.6,16.8,3.2c9.2-7.9,0.6-22.1-0.9-31.4
			c-1.9-11.6,0.4-26,10.8-33.1c8.7-6,21.6-6.1,28.6,2.4c0-1.4,0-2.8,0-4.2c-8.6,7.4-22.1,18.3-34.1,12.6
			c-10.6-5-12.4-19.3-11.9-29.6c0.6-12.9,5.8-26.3,17.4-33c5-2.9,11.4-4.7,17.2-3.3c5.2,1.2,12.5,6.9,9.2,12.9
			c-1.4,2.5,1.5,5.9,4.1,4.1c8.4-5.9,21.1-2,25.7,7c2.8,5.5,0.2,11.4,1.7,17.2c1.7,6.6,7.9,10.8,6.6,18.2
			c-1.2,7.1-6.8,8.2-11.2,12.7c-4.3,4.4-1.9,8.9-1.1,14c0.7,4.4-1.7,4.7-4.4,7.1c-1.6,1.4-2.8,3.2-3.8,5.2c-2.3,4.6-2.9,12.1-9,12.9
			c-4.9,0.7-9.8,0-12.2,5.3c-1,2.2-1,4.6-1.1,7c-0.1,4.1-1,7.3-3.8,10.4c-10.4,11.4-27.7,5.5-40.7,10.2c-6.3,2.3-10.4,7.5-17.4,8.2
			c-6.1,0.6-12.7-0.6-18.5,1.9c-7.7,3.3-15.4,14.6-6.4,21.1c5.3,3.8,12.7,2.3,18.6,1.2c8-1.5,15.6-4.1,23-7.6c3-1.4,12.1-6.3,11.5,1
			c-0.4,4.1-5.8,6.2-8.9,7.7c-7.9,3.8-15.9,7.2-24.8,6.6c-3.9-0.3-3.8,5.7,0,6c7.6,0.5,14.6-1.6,21.5-4.5
			c5.9-2.5,13.6-5.2,16.9-11.2c2.2-4,1.9-9.7-1.8-12.7c-5-4.1-11.5-0.9-16.5,1.5c-7.6,3.6-15.8,6.2-24.1,7.7
			c-3.4,0.6-10.7,2.2-12.8-1.8c-1.8-3.4,2.1-7.2,4.7-8.8c6.3-3.8,14.8-1.3,21.7-2.8c7.5-1.6,12.4-7.8,20-9.1
			c13.8-2.4,29.7,0.6,39.5-11.8c1.7-2.1,3-4.4,3.7-7c0.9-3.3-0.3-8.5,1.9-11c2.3-2.5,6.5-1.2,9.7-2.2c2.1-0.7,3.8-2.1,5.2-3.8
			c3.4-4.3,3.5-10.7,7.3-14.7c1.9-1.9,4.5-2.8,6-5.1c1.5-2.2,1.6-4.8,1.1-7.3c-0.7-3.5-3-7,0-10c2.1-2.2,5.3-3.2,7.4-5.6
			c3.8-4.2,5.6-10.1,4.8-15.8c-0.5-3.3-2-6.1-3.7-8.9c-1.2-1.8-2.5-3.7-3.1-5.9c-0.6-2.6-0.1-5.3,0-7.9c0.2-5.8-1.7-11.1-5.7-15.4
			c-7.6-8.3-21.1-11.2-30.6-4.5c1.4,1.4,2.7,2.7,4.1,4.1c5.4-9.7-3.9-19.9-13.4-21.8c-12.1-2.4-24.7,4.2-31.9,13.6
			c-12.7,16.5-16.5,56.2,8.1,64.7c14.2,4.9,28.5-6,38.6-14.7c1.3-1.1,1-3.1,0-4.2c-12.4-14.9-36.4-8.6-45.1,6.8
			c-5.1,9-6,19.7-4.3,29.7c1,6.2,4.2,12,4.7,18.2c0.3,3.3-0.1,6.5-3.3,8.1c-1.9,0.9-5,1.3-5.7-1.2c-0.9-3.3-5.7-2.5-5.9,0.8
			c-0.1,2.8-4.1,3.3-6.2,2.5c-2.7-1.1-3.8-4.3-4.4-6.8c-1.5-6.5-0.7-13.9-0.8-20.5c-0.2-14.6-0.4-29.1-0.6-43.7
			C168.3,92.8,162.3,92.8,162.4,96.7L162.4,96.7z"/>
	</g>
</g>
<circle class="st2" cx="45" cy="55" r="20.5"/>
<circle class="st3" cx="92.5" cy="70.5" r="11.5"/>
<circle class="st1" cx="59.5" cy="96.5" r="8.5"/>
</svg>
